<?xml version="1.0" standalone="no"?>
<!DOCTYPE svg PUBLIC "-//W3C//DTD SVG 20010904//EN"
 "http://www.w3.org/TR/2001/REC-SVG-20010904/DTD/svg10.dtd">
<svg version="1.0" xmlns="http://www.w3.org/2000/svg"
 width="309.000000pt" height="74.000000pt" viewBox="0 0 309.000000 74.000000"
 preserveAspectRatio="xMidYMid meet">

<g transform="translate(0.000000,74.000000) scale(0.100000,-0.100000)"
fill="#fef6eb" stroke="none">
<path d="M81 722 c-19 -9 -44 -30 -55 -45 -20 -27 -21 -41 -21 -307 0 -266 1
-280 21 -307 11 -15 36 -36 55 -45 32 -17 122 -18 1464 -18 1342 0 1432 1
1464 18 19 9 44 30 55 45 20 27 21 41 21 307 0 266 -1 280 -21 307 -11 15 -36
36 -55 45 -32 17 -122 18 -1464 18 -1342 0 -1432 -1 -1464 -18z m2930 -61 l29
-29 0 -262 0 -262 -29 -29 -29 -29 -1437 0 -1437 0 -29 29 -29 29 0 262 0 262
29 29 29 29 1437 0 1437 0 29 -29z"/>
<path d="M133 640 c-58 -35 -63 -58 -63 -270 0 -212 5 -235 63 -270 31 -20 61
-20 1412 -20 1351 0 1381 0 1412 20 58 35 63 58 63 270 0 212 -5 235 -63 270
-31 20 -61 20 -1412 20 -1351 0 -1381 0 -1412 -20z m2834 -33 l28 -27 0 -210
0 -210 -28 -27 -27 -28 -1395 0 -1395 0 -27 28 -28 27 0 209 c0 195 1 210 20
231 11 12 29 26 40 31 11 4 642 7 1402 6 l1383 -2 27 -28z"/>
<path d="M344 469 c-26 -27 -29 -37 -29 -94 0 -57 3 -67 29 -94 33 -34 74 -44
60 -13 -12 22 -12 192 0 215 14 30 -27 20 -60 -14z"/>
<path d="M438 400 c3 -86 2 -100 -12 -100 -9 0 -16 -4 -16 -10 0 -5 5 -10 10
-10 6 0 10 -7 10 -15 0 -8 14 -17 35 -21 39 -7 65 0 65 17 0 6 -7 9 -15 5 -19
-7 -19 4 0 40 30 58 12 144 -37 178 -40 28 -43 21 -40 -84z"/>
<path d="M550 491 c0 -6 5 -13 10 -16 6 -3 10 -46 10 -96 0 -101 15 -129 70
-129 29 0 40 13 20 25 -6 3 -10 48 -10 100 0 52 4 97 10 100 25 15 5 25 -50
25 -33 0 -60 -4 -60 -9z"/>
<path d="M706 491 c-3 -5 1 -11 9 -15 12 -4 15 -24 15 -91 0 -72 -3 -88 -20
-105 -24 -24 -25 -30 -6 -30 31 0 46 42 46 126 0 60 4 85 15 94 8 7 15 16 15
21 0 12 -67 12 -74 0z"/>
<path d="M880 478 c0 -13 6 -49 14 -81 l14 -58 -27 -11 -26 -11 30 -6 c25 -6
30 -11 28 -34 -2 -26 0 -27 53 -27 51 0 64 7 47 24 -5 4 -19 56 -33 114 l-25
107 -38 3 c-33 3 -37 1 -37 -20z"/>
<path d="M1046 483 c13 -28 17 -194 5 -206 -21 -21 -11 -27 42 -27 l52 0 0
125 0 125 -54 0 c-47 0 -52 -2 -45 -17z"/>
<path d="M1350 483 c0 -10 7 -45 15 -78 18 -77 18 -75 -5 -75 -11 0 -20 -4
-20 -10 0 -5 12 -10 26 -10 24 0 26 -3 21 -30 l-6 -30 55 0 c50 0 55 2 49 18
-4 9 -19 65 -33 125 l-25 107 -39 0 c-30 0 -38 -4 -38 -17z"/>
<path d="M1510 490 c0 -5 4 -10 8 -10 4 0 38 -52 75 -115 57 -97 72 -115 93
-115 22 0 24 4 24 41 0 31 -12 63 -47 125 l-48 83 -52 1 c-29 0 -53 -4 -53
-10z"/>
<path d="M1670 491 c0 -6 5 -13 10 -16 6 -3 10 -26 10 -50 0 -24 5 -47 10 -50
6 -4 10 11 10 38 0 27 6 49 15 57 24 20 17 30 -20 30 -19 0 -35 -4 -35 -9z"/>
<path d="M1750 461 c0 -43 16 -64 26 -34 3 10 10 26 15 35 15 28 11 38 -16 38
-22 0 -25 -4 -25 -39z"/>
<path d="M1812 393 c2 -60 -1 -116 -6 -125 -7 -16 -2 -18 53 -18 34 0 61 4 61
10 0 6 -4 10 -10 10 -6 0 -10 45 -10 115 l0 115 -46 0 -45 0 3 -107z"/>
<path d="M1910 493 c0 -15 34 -83 42 -83 4 0 8 20 8 45 0 41 -2 45 -25 45 -14
0 -25 -3 -25 -7z"/>
<path d="M1985 490 c-3 -5 -1 -10 4 -10 16 0 15 -202 -1 -218 -9 -9 2 -12 50
-12 35 0 62 4 62 10 0 6 -4 10 -10 10 -6 0 -10 40 -10 99 0 56 4 103 10 106 6
3 10 10 10 16 0 12 -107 12 -115 -1z"/>
<path d="M2174 482 c-12 -9 -27 -28 -34 -41 -17 -33 -15 -116 3 -144 19 -30
80 -61 86 -45 2 7 -1 14 -7 16 -15 5 -16 198 -2 207 6 3 10 10 10 16 0 15 -33
10 -56 -9z"/>
<path d="M2240 490 c0 -5 5 -10 10 -10 6 0 10 -37 10 -90 0 -73 -3 -90 -15
-90 -8 0 -15 -4 -15 -10 0 -5 4 -10 9 -10 5 0 7 -8 5 -17 -7 -26 77 -31 97 -6
12 15 12 16 -3 11 -23 -9 -29 1 -13 26 7 11 14 35 16 51 5 69 -1 94 -32 124
-29 30 -69 42 -69 21z"/>
<path d="M2376 483 c5 -10 10 -59 12 -110 4 -101 9 -110 67 -123 27 -6 35 -5
35 6 0 8 -5 14 -11 14 -7 0 -10 37 -7 115 l3 115 -54 0 c-47 0 -52 -2 -45 -17z"/>
<path d="M2520 491 c0 -5 7 -14 15 -21 11 -9 15 -33 15 -87 0 -66 -3 -77 -25
-99 -32 -32 -32 -47 0 -32 32 14 45 56 45 144 0 40 5 76 10 79 21 13 9 25 -25
25 -19 0 -35 -4 -35 -9z"/>
<path d="M2625 490 c-3 -5 -1 -10 4 -10 16 0 15 -202 -1 -218 -9 -9 0 -12 40
-12 l52 0 0 125 0 125 -44 0 c-25 0 -48 -4 -51 -10z"/>
<path d="M2740 495 c0 -3 16 -21 35 -41 l35 -35 0 41 c0 39 -1 40 -35 40 -19
0 -35 -2 -35 -5z"/>
<path d="M844 374 c-10 -44 -27 -87 -36 -96 -25 -25 -23 -28 17 -28 35 0 43 8
25 26 -6 6 -4 32 9 74 10 36 15 73 12 84 -5 12 -13 -7 -27 -60z"/>
<path d="M1315 368 c-10 -40 -24 -80 -31 -89 -21 -24 -17 -29 21 -29 19 0 35
5 35 10 0 6 -4 10 -10 10 -14 0 -12 34 6 97 10 33 12 59 7 64 -5 5 -17 -20
-28 -63z"/>
<path d="M1540 357 c0 -45 -5 -68 -15 -77 -24 -20 -17 -30 20 -30 34 0 46 12
25 25 -5 3 -10 35 -10 70 0 35 -4 67 -10 70 -6 4 -10 -18 -10 -58z"/>
<path d="M2751 396 c-11 -19 -10 -27 0 -45 21 -32 29 -25 29 24 0 50 -10 57
-29 21z"/>
<path d="M2773 293 c-18 -20 -33 -38 -33 -40 0 -1 16 -3 35 -3 34 0 35 1 35
40 0 22 -1 40 -2 39 -2 0 -18 -16 -35 -36z"/>
</g>
</svg>
